<svg width="19" height="16" viewBox="0 0 19 16" fill="none" xmlns="http://www.w3.org/2000/svg">
<path id="Vector" d="M9.49999 2.66667H18.8333V4H9.49999V2.66667ZM9.49999 12H18.8333V13.3333H9.49999V12ZM5.49999 6.66667H1.49999C1.14648 6.66631 0.807543 6.52572 0.557571 6.27575C0.307599 6.02578 0.167009 5.68685 0.166656 5.33333V1.33333C0.167009 0.97982 0.307599 0.640886 0.557571 0.390914C0.807543 0.140942 1.14648 0.000352984 1.49999 0H5.49999C5.8535 0.000352984 6.19244 0.140942 6.44241 0.390914C6.69238 0.640886 6.83297 0.97982 6.83332 1.33333V5.33333C6.83297 5.68685 6.69238 6.02578 6.44241 6.27575C6.19244 6.52572 5.8535 6.66631 5.49999 6.66667ZM1.49999 1.33333V5.33333H5.50066L5.49999 1.33333H1.49999ZM5.49999 16H1.49999C1.14648 15.9996 0.807543 15.8591 0.557571 15.6091C0.307599 15.3591 0.167009 15.0202 0.166656 14.6667V10.6667C0.167009 10.3132 0.307599 9.97422 0.557571 9.72425C0.807543 9.47428 1.14648 9.33369 1.49999 9.33333H5.49999C5.8535 9.33369 6.19244 9.47428 6.44241 9.72425C6.69238 9.97422 6.83297 10.3132 6.83332 10.6667V14.6667C6.83297 15.0202 6.69238 15.3591 6.44241 15.6091C6.19244 15.8591 5.8535 15.9996 5.49999 16ZM1.49999 10.6667V14.6667H5.50066L5.49999 10.6667H1.49999Z" fill="black"/>
</svg>
